<svg width="60" height="60" viewBox="0 0 60 60" fill="none" xmlns="http://www.w3.org/2000/svg">
<circle cx="30" cy="30" r="30" fill="#FEE500"/>
<g transform="translate(13.224 14.478)">
<path d="M16.8607 0C7.52712 0 0 6.02163 0 13.332C0 18.0771 3.13128 22.232 7.8282 24.6046L6.23848 30.542C6.2085 30.631 6.20389 30.7265 6.22516 30.818C6.24643 30.9094 6.29274 30.9932 6.35891 31.0598C6.45539 31.1449 6.57953 31.192 6.70817 31.1923C6.81483 31.1837 6.91602 31.1416 6.99721 31.0719L13.8379 26.4593C14.8476 26.5987 15.8655 26.671 16.8848 26.676C26.2064 26.676 33.7456 20.6543 33.7456 13.332C33.7456 6.00959 26.1823 0 16.8607 0Z" fill="#392020"/>
<path d="M5.90073 11.2243H4.0581C3.82971 11.231 3.60415 11.1725 3.40775 11.0557C3.32055 11.0011 3.24559 10.929 3.18756 10.844C3.12953 10.759 3.08969 10.663 3.07054 10.5619C3.06469 10.4978 3.06469 10.4334 3.07054 10.3693C3.06481 10.2494 3.0881 10.1298 3.13841 10.0207C3.18873 9.91172 3.26459 9.81648 3.35958 9.74303C3.56954 9.59097 3.82296 9.51064 4.08218 9.51413H9.63418C9.86438 9.50604 10.0915 9.56915 10.2845 9.69481C10.3738 9.74702 10.4503 9.81847 10.5086 9.90386C10.567 9.98925 10.6056 10.0865 10.6217 10.1886C10.6276 10.2487 10.6276 10.3092 10.6217 10.3693C10.6274 10.491 10.6042 10.6122 10.5539 10.7232C10.5037 10.8341 10.4279 10.9315 10.3327 11.0075C10.1279 11.1594 9.87688 11.236 9.62214 11.2243H7.83972V17.5592C7.84696 17.6941 7.82607 17.8291 7.77839 17.9555C7.7307 18.082 7.65726 18.1972 7.56272 18.2938C7.47206 18.3862 7.36308 18.4585 7.24278 18.5062C7.12248 18.5539 6.99351 18.5759 6.8642 18.5708C6.63802 18.5772 6.41664 18.505 6.23795 18.3661C6.06783 18.2305 5.95237 18.038 5.91278 17.8241C5.90088 17.7362 5.90088 17.6471 5.91278 17.5592L5.90073 11.2243Z" fill="#FEE500"/>
<path d="M11.1533 9.98384C11.2063 9.78566 11.3307 9.61404 11.5026 9.50208C11.6857 9.39827 11.8945 9.34818 12.1048 9.35756H12.5624C12.7856 9.34956 13.0066 9.40377 13.2007 9.51413C13.4064 9.65247 13.5526 9.86311 13.6102 10.1042L16.0189 16.9088C16.0813 17.0863 16.1336 17.2674 16.1754 17.4508C16.1796 17.5271 16.1796 17.6034 16.1754 17.6796C16.1795 17.797 16.1579 17.9138 16.1121 18.022C16.0664 18.1301 15.9976 18.2271 15.9105 18.3059C15.8261 18.3923 15.7248 18.4605 15.6129 18.5061C15.501 18.5517 15.3809 18.5737 15.2601 18.5708C15.0744 18.5893 14.8878 18.5447 14.7305 18.4442C14.5732 18.3437 14.4543 18.1932 14.393 18.0168L13.8872 16.5355H10.7198L10.214 18.0168C10.1541 18.1966 10.0338 18.3501 9.87349 18.4511C9.71318 18.5521 9.52279 18.5944 9.33478 18.5708C9.13113 18.5761 8.93165 18.5124 8.76874 18.3901C8.61002 18.2639 8.50294 18.0841 8.46766 17.8844C8.46127 17.8163 8.46127 17.7477 8.46766 17.6796C8.44698 17.56 8.44698 17.4379 8.46766 17.3184C8.46766 17.1859 8.55196 17.0413 8.60014 16.9088L11.1533 9.98384ZM12.3577 11.5616L11.2135 15.1746H13.4897L12.3577 11.5616Z" fill="#FEE500"/>
<path d="M16.4512 10.3694C16.439 10.0992 16.5343 9.83506 16.7162 9.63481C16.8087 9.54153 16.9197 9.46862 17.0421 9.42091C17.1645 9.3732 17.2955 9.35162 17.4268 9.35769C17.6524 9.35506 17.8725 9.42709 18.053 9.56248C18.2203 9.70375 18.3314 9.90026 18.3661 10.1164C18.378 10.2003 18.378 10.2856 18.3661 10.3694V16.7043H21.6781C21.9076 16.7013 22.1333 16.7638 22.3284 16.8848C22.4161 16.9389 22.4914 17.0109 22.5495 17.0959C22.6076 17.181 22.6472 17.2773 22.6656 17.3786C22.6656 17.3786 22.6656 17.4991 22.6656 17.5593C22.6714 17.6792 22.6481 17.7987 22.5978 17.9077C22.5474 18.0168 22.4716 18.1121 22.3766 18.1856C22.1666 18.3377 21.9132 18.4178 21.654 18.4143H17.5833C17.3241 18.431 17.0664 18.3635 16.8487 18.2218C16.654 18.0762 16.5242 17.8599 16.4874 17.6196C16.4785 17.4873 16.4785 17.3544 16.4874 17.2221L16.4512 10.3694Z" fill="#FEE500"/>
<path d="M22.8826 10.3695C22.8754 10.1 22.97 9.83772 23.1476 9.63487C23.3281 9.47086 23.5596 9.374 23.8031 9.36084C24.0467 9.34768 24.2873 9.41894 24.4844 9.56254C24.6553 9.70257 24.7706 9.89898 24.8096 10.1165C24.8155 10.2007 24.8155 10.2853 24.8096 10.3695V13.3201L27.8566 9.80335C27.9739 9.68338 28.0986 9.57087 28.2299 9.46625C28.3536 9.39259 28.4954 9.35493 28.6394 9.35775C28.8499 9.3566 29.0557 9.41965 29.2295 9.53843C29.3114 9.59357 29.3813 9.66472 29.4351 9.74749C29.4889 9.83026 29.5255 9.92298 29.5426 10.0202C29.5475 10.044 29.5475 10.0687 29.5426 10.0925C29.5368 10.1203 29.5368 10.149 29.5426 10.1768C29.5422 10.3035 29.509 10.428 29.4463 10.5381C29.3824 10.6547 29.3056 10.7637 29.2175 10.8632L27.2183 13.0552L29.6269 16.7886V16.909C29.752 17.0816 29.8495 17.2726 29.916 17.4751V17.5353C29.9299 17.6748 29.9098 17.8157 29.8573 17.9457C29.8049 18.0758 29.7217 18.1911 29.6149 18.2819C29.414 18.4338 29.1682 18.5144 28.9164 18.5108C28.7491 18.5177 28.5829 18.4802 28.4346 18.4024C28.2742 18.2948 28.1421 18.1502 28.0493 17.9809L25.8092 14.3678L24.7373 15.4879V17.4991C24.7445 17.7686 24.6499 18.0309 24.4724 18.2337C24.3772 18.3267 24.264 18.3994 24.1397 18.447C24.0154 18.4947 23.8827 18.5164 23.7498 18.5108C23.5275 18.5155 23.3105 18.4431 23.1355 18.3061C22.9654 18.1705 22.85 17.9781 22.8104 17.7642C22.7985 17.6762 22.7985 17.587 22.8104 17.4991L22.8826 10.3695Z" fill="#FEE500"/>
</g>
</svg>
